<svg width="35" height="35" viewBox="0 0 35 35" fill="none" xmlns="http://www.w3.org/2000/svg">
<path d="M16.0417 13.1249V8.74992H11.6667V5.83325H16.0417V1.45825H18.9584V5.83325H23.3334V8.74992H18.9584V13.1249H16.0417ZM10.2084 32.0833C9.40629 32.0833 8.71942 31.7974 8.14775 31.2258C7.57608 30.6541 7.29074 29.9677 7.29171 29.1666C7.29171 28.3645 7.57754 27.6776 8.14921 27.106C8.72087 26.5343 9.40726 26.2489 10.2084 26.2499C11.0105 26.2499 11.6973 26.5358 12.269 27.1074C12.8407 27.6791 13.126 28.3655 13.125 29.1666C13.125 29.9687 12.8392 30.6555 12.2675 31.2272C11.6959 31.7989 11.0095 32.0842 10.2084 32.0833ZM24.7917 32.0833C23.9896 32.0833 23.3027 31.7974 22.7311 31.2258C22.1594 30.6541 21.8741 29.9677 21.875 29.1666C21.875 28.3645 22.1609 27.6776 22.7325 27.106C23.3042 26.5343 23.9906 26.2489 24.7917 26.2499C25.5938 26.2499 26.2807 26.5358 26.8523 27.1074C27.424 27.6791 27.7093 28.3655 27.7084 29.1666C27.7084 29.9687 27.4225 30.6555 26.8509 31.2272C26.2792 31.7989 25.5928 32.0842 24.7917 32.0833ZM10.2084 24.7916C9.11462 24.7916 8.27608 24.3113 7.69275 23.3508C7.10942 22.3902 7.09726 21.4364 7.65629 20.4895L9.62504 16.9166L4.37504 5.83325H1.45837V2.91659H6.23442L12.4323 16.0416H22.6771L28.3282 5.83325L30.8802 7.21867L25.2292 17.427C24.9618 17.9131 24.6094 18.2899 24.1719 18.5572C23.7344 18.8246 23.2362 18.9583 22.6771 18.9583H11.8125L10.2084 21.8749H27.7084V24.7916H10.2084Z" fill="#399110"/>
</svg>
