<svg width="35" height="35" viewBox="0 0 35 35" fill="none" xmlns="http://www.w3.org/2000/svg">
<path d="M14.5834 21.8748L22.1522 17.4998L14.5834 13.1248V21.8748ZM31.4417 10.4561C31.6313 11.1415 31.7626 12.0603 31.8501 13.2269C31.9522 14.3936 31.9959 15.3998 31.9959 16.2748L32.0834 17.4998C32.0834 20.6936 31.8501 23.0415 31.4417 24.5436C31.0772 25.8561 30.2313 26.7019 28.9188 27.0665C28.2334 27.2561 26.9792 27.3873 25.0542 27.4748C23.1584 27.5769 21.423 27.6207 19.8188 27.6207L17.5001 27.7082C11.3897 27.7082 7.58342 27.4748 6.08133 27.0665C4.76883 26.7019 3.923 25.8561 3.55841 24.5436C3.36883 23.8582 3.23758 22.9394 3.15008 21.7728C3.048 20.6061 3.00425 19.5998 3.00425 18.7248L2.91675 17.4998C2.91675 14.3061 3.15008 11.9582 3.55841 10.4561C3.923 9.14359 4.76883 8.29775 6.08133 7.93317C6.76675 7.74359 8.02092 7.61234 9.94592 7.52484C11.8417 7.42275 13.5772 7.379 15.1813 7.379L17.5001 7.2915C23.6105 7.2915 27.4167 7.52484 28.9188 7.93317C30.2313 8.29775 31.0772 9.14359 31.4417 10.4561Z" fill="black"/>
</svg>
