<svg width="35" height="35" viewBox="0 0 35 35" fill="none" xmlns="http://www.w3.org/2000/svg">
<path d="M11.3751 2.9165H23.6251C28.2917 2.9165 32.0834 6.70817 32.0834 11.3748V23.6248C32.0834 25.8681 31.1923 28.0195 29.606 29.6058C28.0198 31.192 25.8684 32.0832 23.6251 32.0832H11.3751C6.70842 32.0832 2.91675 28.2915 2.91675 23.6248V11.3748C2.91675 9.13155 3.80789 6.98014 5.39414 5.39389C6.98038 3.80765 9.13179 2.9165 11.3751 2.9165ZM11.0834 5.83317C9.69103 5.83317 8.35567 6.38629 7.3711 7.37086C6.38654 8.35543 5.83341 9.69078 5.83341 11.0832V23.9165C5.83341 26.8186 8.18133 29.1665 11.0834 29.1665H23.9167C25.3091 29.1665 26.6445 28.6134 27.6291 27.6288C28.6136 26.6443 29.1667 25.3089 29.1667 23.9165V11.0832C29.1667 8.18109 26.8188 5.83317 23.9167 5.83317H11.0834ZM25.1563 8.02067C25.6398 8.02067 26.1035 8.21273 26.4453 8.55459C26.7872 8.89645 26.9792 9.36012 26.9792 9.84359C26.9792 10.3271 26.7872 10.7907 26.4453 11.1326C26.1035 11.4744 25.6398 11.6665 25.1563 11.6665C24.6729 11.6665 24.2092 11.4744 23.8673 11.1326C23.5255 10.7907 23.3334 10.3271 23.3334 9.84359C23.3334 9.36012 23.5255 8.89645 23.8673 8.55459C24.2092 8.21273 24.6729 8.02067 25.1563 8.02067ZM17.5001 10.2082C19.434 10.2082 21.2886 10.9764 22.6561 12.3439C24.0235 13.7113 24.7917 15.566 24.7917 17.4998C24.7917 19.4337 24.0235 21.2884 22.6561 22.6558C21.2886 24.0233 19.434 24.7915 17.5001 24.7915C15.5662 24.7915 13.7115 24.0233 12.3441 22.6558C10.9766 21.2884 10.2084 19.4337 10.2084 17.4998C10.2084 15.566 10.9766 13.7113 12.3441 12.3439C13.7115 10.9764 15.5662 10.2082 17.5001 10.2082ZM17.5001 13.1248C16.3398 13.1248 15.227 13.5858 14.4065 14.4062C13.586 15.2267 13.1251 16.3395 13.1251 17.4998C13.1251 18.6602 13.586 19.773 14.4065 20.5934C15.227 21.4139 16.3398 21.8748 17.5001 21.8748C18.6604 21.8748 19.7732 21.4139 20.5937 20.5934C21.4141 19.773 21.8751 18.6602 21.8751 17.4998C21.8751 16.3395 21.4141 15.2267 20.5937 14.4062C19.7732 13.5858 18.6604 13.1248 17.5001 13.1248Z" fill="black"/>
</svg>
