<svg width="35" height="35" viewBox="0 0 35 35" fill="none" xmlns="http://www.w3.org/2000/svg">
<path d="M22.3853 8.09384C21.2772 8.09364 20.2132 8.52839 19.4223 9.30456C18.6314 10.0807 18.1768 11.1363 18.1561 12.2443L18.1153 14.5411C18.1131 14.6646 18.0848 14.7862 18.0323 14.8979C17.9798 15.0096 17.9042 15.109 17.8105 15.1894C17.7169 15.2699 17.6072 15.3296 17.4889 15.3646C17.3705 15.3997 17.246 15.4093 17.1236 15.3928L14.8457 15.0822C11.8518 14.6738 8.98177 13.2957 6.22698 11.0018C5.35635 15.8288 7.05823 19.1728 11.1605 21.7526L13.7082 23.3538C13.8291 23.4298 13.9295 23.5343 14.0007 23.658C14.0719 23.7817 14.1118 23.921 14.1168 24.0637C14.1218 24.2063 14.0919 24.3481 14.0296 24.4765C13.9673 24.6049 13.8745 24.7162 13.7593 24.8005L11.4376 26.498C12.8186 26.5855 14.1297 26.5243 15.2176 26.3084C22.098 24.9347 26.6728 19.7576 26.6728 11.2176C26.6728 10.5205 25.1955 8.09384 22.3853 8.09384ZM15.2395 12.1918C15.2649 10.786 15.7045 9.41898 16.5032 8.26187C17.3019 7.10476 18.4242 6.20897 19.7296 5.68666C21.0349 5.16436 22.4654 5.03874 23.8418 5.32555C25.2182 5.61236 26.4795 6.29884 27.4676 7.29904C28.5045 7.29175 29.3868 7.55425 31.3584 6.35696C30.8714 8.74863 30.6293 9.78842 29.5895 11.2161C29.5895 22.3593 22.7397 27.7799 15.7878 29.1668C11.0234 30.1176 4.09198 28.5557 2.10864 26.4805C3.11927 26.4032 7.23177 25.9613 9.60885 24.2201C7.59635 22.893 -0.406982 18.1826 4.85323 5.52134C7.32218 8.40446 9.82614 10.3659 12.3636 11.4086C14.0509 12.1013 14.4666 12.0868 15.2409 12.1932L15.2395 12.1918Z" fill="black"/>
</svg>
